<svg xmlns="http://www.w3.org/2000/svg" viewBox="0 0 122.15 115.45">
  <defs>
    <style>
      .cls-1 {
        fill: #fff;
      }

      .cls-2 {
        fill: #434344;
      }

      .cls-3 {
        font-size: 100px;
        fill: #3d00f9;
        font-family: Couture-Bold, Couture;
        font-weight: 700;
      }

      .cls-4 {
        fill: #008afc;
      }
    </style>
  </defs>
  <title>Vita Logo</title>
  <g id="Layer_2" data-name="Layer 2">
    <g id="Layer_1-2" data-name="Layer 1">
      <g>
        <g>
          <path class="cls-1" d="M22.51,106.4a58.24,58.24,0,1,1,77,0l-.06.05"/>
          <path class="cls-2" d="M22.51,106.4A56.48,56.48,0,0,1,2.4,77.25c-.49-1.45-.77-3-1.13-4.44L.86,70.56C.71,69.8.6,69,.52,68.28A61.38,61.38,0,0,1,0,59.08,59.24,59.24,0,0,1,3.3,40.84,61.17,61.17,0,0,1,33.69,6.43a67.59,67.59,0,0,1,8.77-3.56A66.21,66.21,0,0,1,51.7.72,69,69,0,0,1,61.14,0a69.24,69.24,0,0,1,9.44.74,67.81,67.81,0,0,1,9.23,2.17,62.06,62.06,0,0,1,16.86,8.46A61.06,61.06,0,0,1,118.89,41a59.45,59.45,0,0,1,3.26,18.25,60.79,60.79,0,0,1-2.45,18.17A56.5,56.5,0,0,1,99.5,106.5a60.24,60.24,0,0,0,15.91-30.16,57,57,0,0,0-3.14-32.86A56.09,56.09,0,0,0,91.8,18.38a55.07,55.07,0,0,0-61.38-.09,56.1,56.1,0,0,0-20.53,25A57.06,57.06,0,0,0,6.67,76.2,60.18,60.18,0,0,0,22.51,106.4Z"/>
        </g>
        <g>
          <text class="cls-3" transform="translate(19.56 105.25)">V</text>
          <path class="cls-4" d="M87.3,34.36l16.2.06-24,70.81-16.22,0"/>
        </g>
      </g>
    </g>
  </g>
</svg>
