<svg xmlns="http://www.w3.org/2000/svg" viewBox="0 0 94.31 82.28">
  <defs>
    <style>
      .cls-1 {
        fill: #fff;
      }
    </style>
  </defs>
  <title>white logo</title>
  <g id="Layer_2" data-name="Layer 2">
    <g id="Layer_1-2" data-name="Layer 1">
      <g>
        <path class="cls-1" d="M17.36,82.21A43.64,43.64,0,0,1,1.82,59.69,42.59,42.59,0,0,1,.37,52.76,41.19,41.19,0,0,1,0,45.66l0-1.79c0-.6.12-1.19.18-1.78.16-1.18.26-2.38.48-3.56L1.5,35A12.81,12.81,0,0,1,2,33.29l.57-1.71A46.89,46.89,0,0,1,19.74,8.73a51.23,51.23,0,0,1,13-6.52A53.3,53.3,0,0,1,47.21,0,53.24,53.24,0,0,1,61.64,2.25a51,51,0,0,1,13,6.55A47.69,47.69,0,0,1,85,18.95a44.22,44.22,0,0,1,6.75,12.75l.57,1.71.28.85.21.88.8,3.51c.2,1.18.31,2.38.47,3.56A17,17,0,0,1,94.27,44l0,1.79a40.93,40.93,0,0,1-.37,7.11,43.92,43.92,0,0,1-17.08,29.4A46.55,46.55,0,0,0,89.14,59,42.13,42.13,0,0,0,90,52.51,36.77,36.77,0,0,0,89.74,46l-.15-1.61c0-.54-.19-1.06-.27-1.59-.21-1.05-.37-2.12-.61-3.16l-.9-3.08-.23-.77-.3-.74-.6-1.48a43.48,43.48,0,0,0-15.8-19.39A45.64,45.64,0,0,0,59.58,8.8,47,47,0,0,0,47.2,7,47.27,47.27,0,0,0,34.81,8.76a46.34,46.34,0,0,0-11.33,5.38A43.58,43.58,0,0,0,7.63,33.5L7,35a10.46,10.46,0,0,0-.54,1.51l-.9,3.08c-.26,1-.4,2.1-.62,3.16-.09.53-.22,1.05-.29,1.59l-.15,1.61a37,37,0,0,0-.22,6.48c0,1.09.17,2.16.26,3.25s.3,2.16.53,3.23A46.5,46.5,0,0,0,17.36,82.21Z"/>
        <g>
          <path class="cls-1" d="M46.07,81.31H32.39L14.47,26.15H27L39.27,64.94h.15L51.86,26.15H64.38Z"/>
          <path class="cls-1" d="M67.42,26.55l12.52,0L61.41,81.3l-12.53,0"/>
        </g>
      </g>
    </g>
  </g>
</svg>
